<svg width="30" height="28" viewBox="0 0 30 28" fill="none" xmlns="http://www.w3.org/2000/svg">
<path d="M27.8285 21.2679C27.8426 21.2274 27.8521 21.1847 27.8521 21.1398V6.31644C27.8521 6.27124 27.8426 6.22827 27.8282 6.18754C27.8261 6.18195 27.8249 6.17637 27.8225 6.17079C27.8034 6.12308 27.7753 6.08011 27.74 6.04245C27.7376 6.03993 27.7373 6.03687 27.7349 6.03435C27.7334 6.03296 27.7317 6.0324 27.7302 6.03101C27.6925 5.99362 27.648 5.96348 27.598 5.94088C27.5941 5.93921 27.5912 5.93698 27.5873 5.9353C27.54 5.91549 27.4886 5.90433 27.4345 5.90098C27.4291 5.9007 27.424 5.89959 27.4187 5.89959C27.4136 5.89931 27.4091 5.89819 27.404 5.89819H2.53056C2.52548 5.89819 2.52069 5.89931 2.51561 5.89959C2.51083 5.89987 2.50605 5.9007 2.50126 5.90098C2.44656 5.90433 2.39424 5.91577 2.34641 5.93586C2.34342 5.93698 2.34103 5.93893 2.33804 5.94005C2.28722 5.96265 2.24208 5.99334 2.20412 6.03128C2.20262 6.03268 2.20083 6.03296 2.19933 6.03435C2.19694 6.03659 2.19664 6.03966 2.19425 6.04217C2.15898 6.07983 2.13058 6.12308 2.11144 6.17079C2.10905 6.17637 2.10786 6.18195 2.10576 6.18781C2.09141 6.22855 2.08185 6.27152 2.08185 6.31672V21.1404C2.08185 21.1861 2.09171 21.2297 2.10636 21.271C2.10845 21.2765 2.10965 21.2818 2.11174 21.2874C2.13117 21.3354 2.15987 21.3787 2.19545 21.4163C2.19754 21.4186 2.19814 21.4213 2.20023 21.4236C2.20202 21.4255 2.20441 21.4267 2.20651 21.4286C2.22115 21.4428 2.2373 21.4554 2.25404 21.4677C2.26151 21.473 2.26809 21.4794 2.27586 21.4844C2.29559 21.4972 2.31682 21.5076 2.33864 21.5171C2.34402 21.5193 2.3488 21.5229 2.35418 21.5249C2.40829 21.5463 2.46778 21.5586 2.53026 21.5586H27.4034C27.4659 21.5586 27.5254 21.5466 27.5795 21.5249C27.5879 21.5215 27.5956 21.5165 27.6037 21.5126C27.6222 21.5039 27.6408 21.495 27.6578 21.4841C27.6668 21.4783 27.6749 21.4707 27.6835 21.4643C27.6988 21.4529 27.7137 21.4414 27.7269 21.4283C27.7293 21.4261 27.732 21.4244 27.7343 21.4222C27.7367 21.4197 27.7373 21.4163 27.7397 21.4138C27.7747 21.3764 27.8028 21.3335 27.8219 21.286C27.8249 21.2799 27.8264 21.274 27.8285 21.2679ZM2.97897 7.26566L10.5264 13.7001L2.97897 20.1859V7.26566ZM18.448 13.3848C18.4169 13.4038 18.384 13.4197 18.358 13.4465C18.3482 13.4565 18.3449 13.4696 18.3362 13.4802L14.9671 16.3524L3.68627 6.73497H26.248L18.448 13.3848ZM11.1912 14.2668L14.6646 17.228C14.7504 17.3011 14.8586 17.3376 14.9671 17.3376C15.0757 17.3376 15.1839 17.3011 15.2694 17.228L18.6997 14.3036L26.2459 20.7216H3.67969L11.1912 14.2668ZM19.3649 13.7366L26.9553 7.26566V20.1926L19.3649 13.7366Z" fill="#FA3C3C"/>
</svg>
