<svg width="48" height="48" viewBox="0 0 48 48" fill="none" xmlns="http://www.w3.org/2000/svg">
<path d="M12.6508 25.5648H17.9124V47.2258C17.9124 47.6535 18.2589 48 18.6865 48H27.6077C28.0354 48 28.3819 47.6535 28.3819 47.2258V25.6668H34.4305C34.8238 25.6668 35.1547 25.3717 35.1996 24.9811L36.1183 17.0066C36.1435 16.7871 36.074 16.5674 35.9272 16.4028C35.7803 16.2381 35.57 16.1438 35.3494 16.1438H28.3822V11.145C28.3822 9.63809 29.1936 8.87396 30.794 8.87396C31.0221 8.87396 35.3494 8.87396 35.3494 8.87396C35.777 8.87396 36.1236 8.52728 36.1236 8.09977V0.779923C36.1236 0.352258 35.777 0.00572903 35.3494 0.00572903H29.0714C29.0271 0.00356129 28.9288 0 28.7839 0C27.6946 0 23.9083 0.213832 20.9175 2.96532C17.6036 6.0144 18.0643 9.66519 18.1743 10.2982V16.1436H12.6508C12.2231 16.1436 11.8766 16.4902 11.8766 16.9178V24.7905C11.8766 25.2181 12.2231 25.5648 12.6508 25.5648Z" fill="#FA3C3C"/>
</svg>
