<svg width="140" height="44" viewBox="0 0 140 44" fill="none" xmlns="http://www.w3.org/2000/svg">
<g clip-path="url(#clip0_161_136)">
<path d="M36.1663 35.4085C35.2719 35.4114 34.3858 35.2575 33.559 34.9558C32.7323 34.6541 31.9814 34.2106 31.3496 33.6509L24.392 27.4958C24.1459 27.2877 23.8186 27.1716 23.4781 27.1716C23.1376 27.1716 22.8102 27.2877 22.5641 27.4958L15.583 33.6677C14.9516 34.2283 14.2009 34.6727 13.3742 34.9753C12.5474 35.2779 11.6611 35.4326 10.7663 35.4306H9.40414L18.2205 43.2251C19.5428 44.3916 21.3345 45.0468 23.2025 45.0468C25.0705 45.0468 26.8623 44.3916 28.1845 43.2251L37.0186 35.4137L36.1663 35.4085Z" fill="black"/>
<path d="M10.7677 12.6129C11.6625 12.6108 12.5489 12.7655 13.3757 13.0681C14.2024 13.3707 14.9532 13.8151 15.5844 14.3758L22.5656 20.549C22.8082 20.7629 23.1369 20.883 23.4795 20.883C23.8222 20.883 24.1508 20.7629 24.3935 20.549L31.3496 14.3992C31.9804 13.8378 32.731 13.3928 33.5578 13.09C34.3847 12.7871 35.2713 12.6325 36.1663 12.635H37.0039L28.1698 4.8249C27.5157 4.24635 26.739 3.78741 25.8842 3.47429C25.0294 3.16116 24.1131 3 23.1878 3C22.2626 3 21.3463 3.16116 20.4915 3.47429C19.6367 3.78741 18.86 4.24635 18.2058 4.8249L9.40414 12.6129H10.7677Z" fill="black"/>
<path d="M44.3112 19.6234L38.9729 14.9038C38.8525 14.9473 38.7238 14.9703 38.5938 14.9714H36.1663C34.9032 14.9742 33.6923 15.4177 32.797 16.2055L25.8409 22.3515C25.2144 22.9043 24.3654 23.2148 23.4803 23.2148C22.5951 23.2148 21.7461 22.9043 21.1197 22.3515L14.1371 16.1821C13.242 15.3938 12.0311 14.9499 10.7678 14.9467H7.78781C7.665 14.9443 7.54364 14.9227 7.42928 14.8831L2.05715 19.6234C0.737679 20.7924 -0.00335693 22.3765 -0.00335693 24.028C-0.00335693 25.6794 0.737679 27.2635 2.05715 28.4325L7.41752 33.1716C7.53163 33.1312 7.65315 33.1096 7.77606 33.1079H10.7678C12.0311 33.1046 13.2419 32.6607 14.1371 31.8725L21.1182 25.7005C22.3804 24.5859 24.5801 24.5859 25.8409 25.7005L32.797 31.8491C33.6923 32.6369 34.9032 33.0804 36.1663 33.0832H38.5938C38.7239 33.084 38.8526 33.107 38.9729 33.1508L44.3112 28.4312C44.9656 27.8529 45.4847 27.1662 45.8389 26.4105C46.1931 25.6547 46.3754 24.8447 46.3754 24.0267C46.3754 23.2086 46.1931 22.3986 45.8389 21.6428C45.4847 20.8871 44.9656 20.2005 44.3112 19.6221" fill="black"/>
</g>
<defs>
<clipPath id="clip0_161_136">
<rect width="140" height="44" fill="white"/>
</clipPath>
</defs>
</svg>
