<svg width="30" height="28" viewBox="0 0 30 28" fill="none" xmlns="http://www.w3.org/2000/svg">
<path d="M21.584 17.5918L15.6148 13.6959V7.00004C15.6148 6.68447 15.3381 6.42627 15 6.42627C14.6619 6.42627 14.3853 6.68447 14.3853 7.00004V14C14.3853 14.1894 14.4836 14.3615 14.6496 14.4705L20.8832 18.5386C20.9877 18.6074 21.1107 18.6418 21.2336 18.6418C21.4242 18.6418 21.6148 18.5558 21.7377 18.3894C21.9283 18.1312 21.8607 17.7755 21.584 17.5918Z" fill="#FA3C3C"/>
<path d="M25.5984 4.1082C22.7582 1.45738 18.9959 0 15 0C11.0041 0 7.2418 1.45738 4.40164 4.1082C1.56148 6.75902 0 10.2705 0 14C0 17.7295 1.56148 21.241 4.40164 23.8918C7.2418 26.5426 11.0041 28 15 28C18.9959 28 22.7582 26.5426 25.5984 23.8918C28.4385 21.241 30 17.7295 30 14C30 10.2705 28.4385 6.75902 25.5984 4.1082ZM15.6148 26.841V24.5C15.6148 24.1844 15.3381 23.9262 15 23.9262C14.6619 23.9262 14.3852 24.1844 14.3852 24.5V26.841C7.27869 26.5484 1.55533 21.2066 1.2418 14.5738H3.75C4.08811 14.5738 4.36475 14.3156 4.36475 14C4.36475 13.6844 4.08811 13.4262 3.75 13.4262H1.2418C1.55533 6.79344 7.27869 1.45164 14.3852 1.15902V3.5C14.3852 3.81557 14.6619 4.07377 15 4.07377C15.3381 4.07377 15.6148 3.81557 15.6148 3.5V1.15902C22.7213 1.45164 28.4447 6.79344 28.7582 13.4262H26.25C25.9119 13.4262 25.6352 13.6844 25.6352 14C25.6352 14.3156 25.9119 14.5738 26.25 14.5738H28.7582C28.4447 21.2066 22.7213 26.5484 15.6148 26.841Z" fill="#FA3C3C"/>
</svg>
