<svg width="30" height="28" viewBox="0 0 30 28" fill="none" xmlns="http://www.w3.org/2000/svg">
<g clip-path="url(#clip0_132_2)">
<path d="M6.136 18.6125C9.10619 21.9138 12.6817 24.5131 16.7625 26.3523C18.3163 27.0369 20.3942 27.8491 22.7092 27.9884C22.8527 27.9942 22.99 28 23.1335 28C24.6872 28 25.9352 27.501 26.9523 26.4741C26.9585 26.4683 26.971 26.4567 26.9772 26.4451C27.3392 26.039 27.751 25.6734 28.1815 25.2847C28.4748 25.0236 28.7743 24.7509 29.0614 24.4724C30.3905 23.1844 30.3905 21.5483 29.0489 20.3009L25.2987 16.8139C24.6622 16.1989 23.901 15.874 23.1023 15.874C22.3036 15.874 21.5361 16.1989 20.8809 16.8081L18.647 18.8852C18.4411 18.775 18.2289 18.6763 18.0292 18.5835C17.7796 18.4675 17.5488 18.3572 17.3429 18.2354C15.3086 17.0344 13.4616 15.4679 11.6957 13.4546C10.8034 12.4045 10.2044 11.5226 9.78634 10.6233C10.3729 10.1301 10.922 9.61376 11.4524 9.10899C11.6396 8.92913 11.833 8.74927 12.0265 8.56942C12.7004 7.94281 13.0623 7.21757 13.0623 6.48073C13.0623 5.74389 12.7066 5.01865 12.0265 4.39204L10.167 2.66308C9.94858 2.46001 9.74266 2.26274 9.53051 2.05968C9.11867 1.66515 8.68812 1.25901 8.26381 0.893494C7.6211 0.307501 6.86607 0 6.06737 0C5.2749 0 4.51363 0.307501 3.84596 0.899296L1.51224 3.06921C0.663619 3.85827 0.183148 4.81558 0.0833094 5.92375C-0.0352486 7.3104 0.239307 8.78409 0.950654 10.5653C2.04264 13.3212 3.68997 15.8798 6.136 18.6125ZM1.60584 6.04559C1.68072 5.27393 1.99896 4.62992 2.59799 4.07294L4.91923 1.91463C5.28114 1.58972 5.68049 1.42147 6.06737 1.42147C6.448 1.42147 6.83487 1.58972 7.19055 1.92623C7.60862 2.28595 8.00173 2.66307 8.42605 3.06341C8.6382 3.26647 8.8566 3.46954 9.07499 3.67841L10.9345 5.40738C11.3214 5.76709 11.521 6.13262 11.521 6.49233C11.521 6.85205 11.3214 7.21757 10.9345 7.57729C10.741 7.75715 10.5476 7.94281 10.3542 8.12267C9.77386 8.66805 9.23099 9.18442 8.63196 9.67758C8.61948 9.68918 8.61324 9.69499 8.60076 9.70659C8.08285 10.1881 8.16397 10.6465 8.28877 10.9946C8.29501 11.012 8.30125 11.0236 8.30749 11.041C8.78796 12.1144 9.45563 13.1355 10.4977 14.3539C12.3697 16.5006 14.3415 18.1658 16.5129 19.448C16.7813 19.6104 17.0683 19.7381 17.3366 19.8657C17.5862 19.9818 17.8171 20.092 18.023 20.2138C18.048 20.2254 18.0667 20.237 18.0916 20.2487C18.2976 20.3473 18.4972 20.3937 18.6969 20.3937C19.1961 20.3937 19.5206 20.0978 19.6267 19.9992L21.9604 17.8293C22.3223 17.4927 22.7154 17.3129 23.1023 17.3129C23.5765 17.3129 23.9634 17.5856 24.2067 17.8293L27.9694 21.322C28.7182 22.0182 28.7119 22.7725 27.9507 23.5093C27.6886 23.7704 27.414 24.0199 27.1208 24.281C26.684 24.6755 26.2285 25.0816 25.8166 25.54C25.099 26.2594 24.2442 26.5959 23.1397 26.5959C23.0336 26.5959 22.9213 26.5901 22.8152 26.5843C20.7686 26.4625 18.8654 25.7199 17.4364 25.0874C13.5552 23.3411 10.1483 20.8637 7.32158 17.719C4.9941 15.114 3.42789 12.6888 2.39207 10.0895C1.74936 8.49399 1.506 7.21177 1.60584 6.04559Z" fill="#FA3C3C"/>
</g>
<defs>
<clipPath id="clip0_132_2">
<rect width="30" height="28" fill="white"/>
</clipPath>
</defs>
</svg>
