<svg width="71" height="60" viewBox="0 0 71 60" fill="none" xmlns="http://www.w3.org/2000/svg">
<path d="M69.8788 18.0329C70.4983 18.0329 71 17.6088 71 17.0856V13.399C71 10.9827 68.6738 9.01685 65.8144 9.01685H5.18563C2.32622 9.01685 0 10.9827 0 13.399V46.6011C0 49.0175 2.32622 50.9833 5.18563 50.9833H65.8142C68.6736 50.9833 70.9999 49.0174 70.9999 46.6011V20.1594C70.9999 19.6361 70.4981 19.212 69.8788 19.212C69.2595 19.212 68.7578 19.6363 68.7578 20.1594V41.9298H2.24205V18.0329H69.8788ZM2.24205 13.399C2.24205 12.0274 3.56248 10.9115 5.18563 10.9115H65.8142C67.4374 10.9115 68.7578 12.0274 68.7578 13.399V16.1382H2.24205V13.399ZM68.7579 43.8245V46.601C68.7579 47.9727 67.4375 49.0885 65.8144 49.0885H5.18563C3.56248 49.0885 2.24205 47.9727 2.24205 46.601V43.8245H68.7579Z" fill="black"/>
<path d="M34.3899 22.0005C34.1769 21.7871 33.8635 21.6639 33.5331 21.6639H28.7506C28.3406 21.6639 27.9755 21.8513 27.7799 22.1371C27.7714 22.1251 27.7642 22.1123 27.7549 22.1002C27.5474 21.8341 27.1958 21.6739 26.8186 21.6739H21.7569C21.2954 21.6739 20.8812 21.9129 20.713 22.276L17.3541 29.529L15.865 23.4928C15.8614 23.4781 15.8574 23.4636 15.853 23.4492C15.5984 22.6163 14.8502 21.608 12.7323 21.5329C12.7168 21.5325 12.7011 21.5322 12.6854 21.5322H5.28325C4.74341 21.5322 4.2801 21.8573 4.18123 22.3059L4.11536 22.6048C4.00623 23.0998 4.37426 23.5807 4.95335 23.6993C6.36115 23.9877 7.66994 24.3904 8.85974 24.893C8.82979 25.0343 8.83714 25.1821 8.88692 25.3259L13.1641 37.6803C13.3039 38.0841 13.7422 38.3616 14.2401 38.3616C14.2405 38.3616 14.2409 38.3616 14.2415 38.3616L19.2987 38.3567C19.7462 38.3563 20.1505 38.131 20.3273 37.7836L27.3308 24.0144L24.6586 37.2651C24.6032 37.5403 24.694 37.8221 24.907 38.0354C25.12 38.2486 25.4334 38.3716 25.7636 38.3716H30.5382C31.0845 38.3716 31.5512 38.0388 31.6433 37.5837L34.6381 22.7709C34.6938 22.4956 34.6031 22.2139 34.3899 22.0005ZM12.6606 23.427C13.5138 23.4609 13.6077 23.6819 13.6758 23.9019L14.1265 25.7289C13.0508 24.8437 11.7942 24.0699 10.3846 23.427H12.6606ZM18.5582 36.4627L15.0795 36.466L12.0212 27.6329C13.6934 28.9706 14.9695 30.4515 15.5182 31.5138L15.9973 32.9775C16.126 33.3704 16.538 33.6499 17.02 33.671C17.5015 33.6921 17.9458 33.4501 18.1218 33.07L22.522 23.5686H25.1164L18.5582 36.4627ZM29.5926 36.4769H27.092L29.6967 23.5586H32.2043L29.5926 36.4769Z" fill="black"/>
<path d="M65.0655 37.1552L61.2142 22.4218C61.1008 21.9878 60.6455 21.6789 60.1197 21.6789H56.43C55.7896 21.6789 53.8407 21.6789 52.9029 23.4702L48.2865 32.3017C48.1693 30.368 46.6455 28.8601 43.6373 27.7001C43.0164 27.4461 41.9137 26.9944 41.6328 26.7286C41.77 26.6186 42.225 26.3974 43.2143 26.3974C43.22 26.3974 43.2258 26.3973 43.2315 26.3973C44.6408 26.3801 45.6386 26.6498 46.3476 26.8887L46.7543 27.0463C47.071 27.1691 47.4369 27.1603 47.7451 27.0229C48.0533 26.8854 48.2679 26.6347 48.3267 26.3446L48.9749 23.1355C49.0653 22.6873 48.7662 22.2478 48.2618 22.0886C47.2811 21.7789 45.6739 21.4102 43.5864 21.4102C38.2078 21.4102 34.4264 23.8059 34.3906 27.2334C34.3489 30.2186 38.0212 31.6569 39.2303 32.1306C40.8497 32.7605 41.0291 33.0247 41.0487 33.0707C41.0487 33.0708 41.0502 33.0766 41.0498 33.0956C41.0474 33.2996 40.318 33.6026 39.3153 33.6026C37.5404 33.6026 36.6633 33.3969 35.2647 32.9052L34.672 32.6752C34.3555 32.5523 33.989 32.561 33.681 32.6981C33.3728 32.8356 33.1578 33.0861 33.0992 33.3764L32.428 36.6957C32.3412 37.1251 32.6119 37.5491 33.0842 37.7235C34.4688 38.2348 36.7296 38.5747 38.8441 38.5896C38.8473 38.5896 38.8503 38.5896 38.8535 38.5896C41.554 38.5896 43.8655 38.0522 45.5379 37.0355C45.6841 36.9466 45.8227 36.8529 45.9581 36.7571L45.8068 37.0465C45.6535 37.3395 45.6859 37.6781 45.8928 37.9464C46.0998 38.2148 46.453 38.3766 46.832 38.3766H51.8534C52.3198 38.3766 52.7375 38.1325 52.9022 37.7639C52.908 37.7508 53.3233 36.8218 53.6254 36.1515C54.1489 36.152 54.8666 36.1527 55.6084 36.1534C56.4926 36.1541 57.4111 36.155 58.0777 36.1555C58.2516 36.8176 58.4573 37.6185 58.4603 37.6301C58.5721 38.0658 59.0283 38.3764 59.5558 38.3764H63.9892C63.9898 38.3764 63.9911 38.3764 63.9919 38.3764C64.6112 38.3764 65.113 37.9525 65.113 37.4291C65.113 37.3338 65.0965 37.2421 65.0655 37.1552ZM38.8578 36.6948C37.2855 36.6833 35.8091 36.4725 34.7973 36.2273L35.0698 34.8793C36.3745 35.2971 37.4842 35.4973 39.3153 35.4973C41.6397 35.4973 43.2748 34.5176 43.2917 33.1198C43.3164 31.7488 41.8281 31.0554 40.1707 30.4105C37.7068 29.4454 36.6156 28.4726 36.6327 27.2531C36.6569 24.9286 39.5165 23.305 43.5864 23.305C44.8253 23.305 45.8566 23.4627 46.6005 23.6296L46.3486 24.8776C45.5401 24.6636 44.5142 24.4868 43.206 24.5029C40.5685 24.5054 39.3635 25.6496 39.3581 26.7155C39.3404 28.048 40.8848 28.6794 42.6724 29.4105C42.6803 29.4137 42.6882 29.4169 42.696 29.4199C45.689 30.5715 46.0622 31.71 46.0528 32.5724C46.0232 35.1143 43.2663 36.6938 38.8578 36.6948ZM60.4584 36.4819C60.3214 35.9529 60.1475 35.2874 60.0649 34.9914C59.9455 34.5636 59.4937 34.2615 58.9737 34.2615C58.6049 34.2615 57.0611 34.26 55.6107 34.2588C54.3246 34.2575 53.1115 34.2564 52.8548 34.2564C52.3933 34.2564 51.9792 34.4952 51.811 34.8582C51.6933 35.1124 51.3347 35.9111 51.0789 36.4819H48.5529L54.9537 24.2364C55.1886 23.7874 55.4697 23.5737 56.4302 23.5737H59.2191L62.5931 36.4819H60.4584Z" fill="black"/>
<path d="M59.2889 31.9695C59.097 31.2297 58.1862 27.6949 58.186 27.6948L57.862 26.4173C57.7573 26.0043 57.3417 25.6999 56.843 25.6709C56.3435 25.6425 55.8831 25.8953 55.7123 26.2922C55.5657 26.6333 55.343 27.1197 55.2099 27.4102C55.166 27.506 55.1236 27.5988 55.0889 27.6901L55.0845 27.6886C55.0694 27.7214 53.5756 30.986 53.185 31.8258C53.0493 32.1173 53.0932 32.4468 53.3019 32.7059C53.5111 32.9647 53.8579 33.1198 54.2286 33.1198H58.1939C58.5334 33.1198 58.8546 32.9898 59.0674 32.7662C59.2803 32.5427 59.3617 32.2497 59.2889 31.9695ZM55.8684 31.225C56.0614 30.8046 56.2717 30.3463 56.4659 29.9224C56.5787 30.3599 56.6967 30.8179 56.8018 31.225H55.8684Z" fill="black"/>
</svg>
