<svg width="30" height="30" viewBox="0 0 30 30" fill="none" xmlns="http://www.w3.org/2000/svg">
<path d="M15.2501 0C7.11661 0 0.500145 6.60869 0.500145 14.7326C0.500145 17.3026 1.17314 19.8276 2.44814 22.049L0.0256475 29.3074C-0.0323523 29.4817 0.00964756 29.6729 0.135147 29.8068C0.231146 29.9092 0.364146 29.9646 0.500145 29.9646C0.542645 29.9646 0.585145 29.9591 0.627145 29.9481L8.56061 27.8631C10.6216 28.9118 12.9301 29.4652 15.2501 29.4652C23.3835 29.4652 30 22.8565 30 14.7326C30 6.60869 23.3835 0 15.2501 0ZM15.2501 28.4664C13.5161 28.4664 11.7906 28.1308 10.1841 27.495L12.6086 26.9562C12.8781 26.8962 13.0481 26.6295 12.9881 26.3604C12.9281 26.0907 12.6616 25.9229 12.3916 25.9808L8.51161 26.8433C8.50811 26.8443 8.50561 26.8468 8.50211 26.8473C8.49911 26.8483 8.49611 26.8473 8.49311 26.8478L1.26664 28.7475L3.46813 22.1508C3.51413 22.0135 3.49763 21.8627 3.42363 21.7378C2.16514 19.6223 1.50014 17.2002 1.50014 14.7326C1.50014 7.16004 7.66811 0.99882 15.2501 0.99882C22.832 0.99882 29 7.16004 29 14.7326C29 22.3051 22.832 28.4664 15.2501 28.4664Z" fill="#FA3C3C"/>
<path d="M24.7835 19.2355C24.0795 17.9066 21.771 16.5287 21.505 16.3729C21.0265 16.1012 20.527 16.0158 20.0985 16.1347C19.771 16.2256 19.504 16.4303 19.3225 16.728C18.9845 17.1315 18.564 17.6049 18.4635 17.6829C17.7065 18.1943 17.131 18.1373 16.4765 17.4841L12.4956 13.5078C11.8411 12.8536 11.7831 12.2787 12.2911 11.5301C12.3746 11.4228 12.8481 11.0023 13.2521 10.6652C13.5506 10.4844 13.7556 10.2177 13.8461 9.89008C13.9651 9.46208 13.8801 8.96267 13.6046 8.47974C13.4516 8.21955 12.0726 5.91328 10.7416 5.21011C10.0141 4.82507 9.13409 4.95791 8.55309 5.53922L7.67359 6.41768C6.2426 7.84649 5.72511 9.46907 6.1351 11.2405C6.4726 12.6993 7.4521 14.2464 9.04659 15.838L14.1431 20.9285C15.737 22.5206 17.286 23.499 18.7465 23.8366C19.139 23.9275 19.5245 23.9724 19.902 23.9724C21.2295 23.9724 22.461 23.4126 23.575 22.2994L24.454 21.4209C25.0365 20.8406 25.1685 19.9622 24.7835 19.2355ZM23.747 20.7153L22.868 21.5937C21.681 22.7798 20.407 23.1943 18.972 22.8637C17.6965 22.5691 16.31 21.6801 14.85 20.2224L9.75358 15.1319C8.29409 13.6741 7.4041 12.2892 7.1091 11.0152C6.7771 9.58244 7.1931 8.30945 8.38009 7.12385L9.25958 6.24539C9.42608 6.07859 9.64558 5.99169 9.86858 5.99169C10.0061 5.99169 10.1446 6.02465 10.2736 6.09257C11.1886 6.5765 12.3656 8.3444 12.7386 8.97915C12.8726 9.21388 12.9271 9.46008 12.8821 9.62289C12.8586 9.70829 12.8081 9.76872 12.7181 9.81916L12.6426 9.8711C12.2691 10.1817 11.6201 10.7371 11.4676 10.9623C11.3306 11.1646 11.2306 11.3638 11.1476 11.5621C10.9846 11.1696 10.8581 10.7361 10.8096 10.2656C10.7811 9.99146 10.5346 9.79918 10.2606 9.82016C9.98608 9.84912 9.78608 10.0943 9.81458 10.369C10.0711 12.8376 11.9916 14.4437 12.0736 14.5106C12.0816 14.5171 12.0911 14.5191 12.0991 14.5251L15.769 18.1903C15.783 18.2042 15.7975 18.2142 15.812 18.2277C15.827 18.2477 15.835 18.2707 15.853 18.2886C15.92 18.3551 17.5225 19.9072 19.965 20.1609C19.9825 20.1624 20 20.1634 20.017 20.1634C20.27 20.1634 20.487 19.9721 20.514 19.7159C20.5425 19.4413 20.343 19.1961 20.068 19.1671C19.5015 19.1087 18.9865 18.9638 18.5335 18.786C18.6955 18.7106 18.8585 18.6217 19.023 18.5104C19.249 18.3581 19.8045 17.7093 20.116 17.3363L20.168 17.2614C20.2185 17.1715 20.279 17.121 20.365 17.0975C20.527 17.0506 20.7745 17.1075 21.004 17.2374C21.645 17.6129 23.414 18.787 23.8995 19.703C24.078 20.0391 24.017 20.4461 23.747 20.7153Z" fill="#FA3C3C"/>
</svg>
