<svg width="62" height="56" viewBox="0 0 62 56" fill="none" xmlns="http://www.w3.org/2000/svg">
<path d="M53.3351 24.4125C52.9153 24.4672 52.4847 24.5 52.0326 24.5C49.234 24.5 46.7368 23.2531 45.0253 21.3281C43.3139 23.2531 40.8167 24.5 38.0073 24.5C35.1979 24.5 32.7007 23.2531 30.9892 21.3281C29.2778 23.2531 26.7913 24.5 23.9712 24.5C21.1726 24.5 18.6753 23.2531 16.9639 21.3281C15.2524 23.2531 12.7552 24.5 9.94153 24.5C9.50451 24.5 9.06427 24.4672 8.63695 24.4125C2.68236 23.6031 -0.135086 16.4719 3.04941 11.3531L9.22035 1.43609C9.76931 0.544578 10.7499 0 11.7972 0H50.2028C51.2469 0 52.2264 0.544469 52.7753 1.43609L58.9431 11.3531C62.1399 16.4828 59.309 23.6031 53.3351 24.4125ZM53.7872 27.8797C54.1531 27.825 54.6806 27.7375 55.1111 27.6281V49C55.1111 52.8609 52.0219 56 48.2222 56H13.7778C9.97382 56 6.88889 52.8609 6.88889 49V27.6281C7.30545 27.7375 7.73493 27.825 8.17733 27.8797H8.19024C8.75642 27.9562 9.34629 28 9.94153 28C11.2806 28 12.5722 27.7922 13.7778 27.4094V42H48.2222V27.4203C49.4278 27.7922 50.7087 28 52.0326 28C52.6354 28 53.2167 27.9562 53.7872 27.8797Z" fill="#FF0000"/>
</svg>
