<svg width="455" height="397" viewBox="0 0 455 397" fill="none" xmlns="http://www.w3.org/2000/svg">
<g clip-path="url(#clip0_124_170)">
<path opacity="0.1" d="M77.7624 51.2535C75.3262 54.2053 74.3878 58.3491 73.3356 62.2611C64.8802 93.7132 44.0545 119.025 20.3329 137.086C10.2897 144.74 -1.94319 155.009 0.255981 168.727C1.43614 176.097 6.63072 181.499 10.4982 187.526C18.5934 200.094 21.2144 217.185 17.3564 232.228C12.9675 249.347 0.710978 265.34 4.50739 282.634C6.84874 293.306 14.7923 300.874 22.4325 307.393C34.3478 317.557 46.6439 327.076 59.3207 335.95C67.8187 341.901 76.8571 347.691 86.7581 348.443C95.479 349.11 104.02 345.803 112.295 342.535C119.528 339.697 126.945 336.712 132.784 330.993C136.576 327.26 139.638 322.44 143.87 319.389C153.823 312.213 166.592 316.764 177.995 319.82C205.134 327.011 233.947 324.378 259.326 312.388C298.613 293.94 328.557 255.269 366.972 234.508C383.494 225.577 401.466 220.037 416.766 208.538C425.386 201.986 432.793 193.982 438.653 184.886C450.237 167.076 456.479 144.371 454.682 122.147C452.886 99.9242 442.753 78.5004 426.861 65.9555C409.846 52.526 388.357 50.0189 368.991 41.9536C348.995 33.6235 331.212 19.3047 311.41 10.3738C295.384 3.16487 277.944 -0.371228 260.37 0.0249493C242.796 0.421126 225.533 4.73953 209.85 12.6633C188.299 23.5194 166.459 48.9025 142.453 50.8089C125.367 52.1759 91.1185 35.0851 77.7624 51.2535Z" fill="#DB3336"/>
<path opacity="0.1" d="M293.565 397C342.09 397 381.427 388.054 381.427 377.019C381.427 365.984 342.09 357.038 293.565 357.038C245.04 357.038 205.703 365.984 205.703 377.019C205.703 388.054 245.04 397 293.565 397Z" fill="#DB3336"/>
<path d="M370.635 324.711C370.635 324.711 378.418 339.961 372.057 348.306C365.697 356.65 372.636 379.384 372.636 379.384" stroke="#6C63FF" stroke-miterlimit="10"/>
<path d="M372.958 319.966C372.958 322.908 370.797 325.288 370.797 325.288C370.797 325.288 368.635 322.923 368.635 319.966C368.635 317.01 370.797 314.645 370.797 314.645C370.797 314.645 372.958 317.024 372.958 319.966Z" fill="#DB3336"/>
<path d="M374.688 324.711C374.688 324.711 366.905 339.961 373.266 348.306C379.626 356.65 372.688 379.384 372.688 379.384" stroke="#6C63FF" stroke-miterlimit="10"/>
<path d="M372.38 319.966C372.38 322.908 374.541 325.288 374.541 325.288C374.541 325.288 376.702 322.923 376.702 319.966C376.702 317.01 374.541 314.645 374.541 314.645C374.541 314.645 372.38 317.024 372.38 319.966Z" fill="#DB3336"/>
<path opacity="0.1" d="M372.38 319.966C372.38 322.908 374.541 325.288 374.541 325.288C374.541 325.288 376.702 322.923 376.702 319.966C376.702 317.01 374.541 314.645 374.541 314.645C374.541 314.645 372.38 317.024 372.38 319.966Z" fill="black"/>
<path d="M377.858 324.711C377.858 324.711 385.641 339.961 379.28 348.306C372.92 356.65 379.859 379.384 379.859 379.384" stroke="#6C63FF" stroke-miterlimit="10"/>
<path d="M380.167 319.966C380.167 322.908 378.006 325.288 378.006 325.288C378.006 325.288 375.849 322.908 375.849 319.966C375.849 317.024 378.01 314.645 378.01 314.645C378.01 314.645 380.167 317.024 380.167 319.966Z" fill="#DB3336"/>
<path d="M378.953 332.185C376.911 334.304 373.697 334.526 373.697 334.526C373.697 334.526 373.797 331.314 375.835 329.195C377.873 327.076 381.091 326.854 381.091 326.854C381.091 326.854 380.996 330.065 378.953 332.185Z" fill="#DB3336"/>
<path d="M379.167 342.705C377.124 344.824 373.91 345.046 373.91 345.046C373.91 345.046 374.01 341.835 376.048 339.715C378.086 337.596 381.304 337.374 381.304 337.374C381.304 337.374 381.2 340.586 379.167 342.705Z" fill="#DB3336"/>
<path d="M368.081 348.495C370.01 350.713 369.943 353.93 369.943 353.93C369.943 353.93 366.744 353.547 364.815 351.324C362.886 349.1 362.953 345.888 362.953 345.888C362.953 345.888 366.147 346.276 368.081 348.495Z" fill="#DB3336"/>
<path d="M369.872 326.059C372.327 327.681 373.124 330.789 373.124 330.789C373.124 330.789 369.939 331.262 367.484 329.649C365.028 328.036 364.232 324.919 364.232 324.919C364.232 324.919 367.417 324.432 369.872 326.059Z" fill="#DB3336"/>
<path opacity="0.1" d="M369.872 326.059C372.327 327.681 373.124 330.789 373.124 330.789C373.124 330.789 369.939 331.262 367.484 329.649C365.028 328.036 364.232 324.919 364.232 324.919C364.232 324.919 367.417 324.432 369.872 326.059Z" fill="black"/>
<path d="M381.897 324.711C381.897 324.711 374.114 339.961 380.475 348.306C386.835 356.65 379.897 379.384 379.897 379.384" stroke="#6C63FF" stroke-miterlimit="10"/>
<path d="M379.589 319.966C379.589 322.908 381.75 325.288 381.75 325.288C381.75 325.288 383.911 322.923 383.911 319.966C383.911 317.01 381.75 314.645 381.75 314.645C381.75 314.645 379.589 317.024 379.589 319.966Z" fill="#DB3336"/>
<path opacity="0.1" d="M379.589 319.966C379.589 322.908 381.75 325.288 381.75 325.288C381.75 325.288 383.911 322.923 383.911 319.966C383.911 317.01 381.75 314.645 381.75 314.645C381.75 314.645 379.589 317.024 379.589 319.966Z" fill="black"/>
<path d="M380.209 332.412C378.143 334.507 378.005 337.719 378.005 337.719C378.005 337.719 381.224 337.535 383.29 335.444C385.356 333.353 385.494 330.136 385.494 330.136C385.494 330.136 382.28 330.316 380.209 332.412Z" fill="#DB3336"/>
<path opacity="0.1" d="M380.209 332.412C378.143 334.507 378.005 337.719 378.005 337.719C378.005 337.719 381.224 337.535 383.29 335.444C385.356 333.353 385.494 330.136 385.494 330.136C385.494 330.136 382.28 330.316 380.209 332.412Z" fill="black"/>
<path d="M384.266 346.981C382.2 349.077 382.062 352.289 382.062 352.289C382.062 352.289 385.281 352.104 387.347 350.013C389.414 347.923 389.551 344.706 389.551 344.706C389.551 344.706 386.333 344.886 384.266 346.981Z" fill="#DB3336"/>
<path d="M378.299 343.779C378.299 343.779 382.987 336.409 389.561 336.248" stroke="#6C63FF" stroke-miterlimit="10"/>
<path d="M374.65 339.327C374.65 339.327 369.962 331.958 363.389 331.797" stroke="#6C63FF" stroke-miterlimit="10"/>
<path d="M374.043 349.848C374.043 349.848 378.731 342.473 385.328 342.303" stroke="#6C63FF" stroke-miterlimit="10"/>
<path d="M389.347 337.407C390.02 337.407 390.565 336.863 390.565 336.191C390.565 335.52 390.02 334.976 389.347 334.976C388.674 334.976 388.129 335.52 388.129 336.191C388.129 336.863 388.674 337.407 389.347 337.407Z" fill="#DB3336"/>
<path d="M363.502 333.055C364.175 333.055 364.72 332.511 364.72 331.839C364.72 331.168 364.175 330.624 363.502 330.624C362.83 330.624 362.284 331.168 362.284 331.839C362.284 332.511 362.83 333.055 363.502 333.055Z" fill="#DB3336"/>
<path d="M377.489 352.274C377.489 352.274 372.801 344.905 366.228 344.744" stroke="#6C63FF" stroke-miterlimit="10"/>
<path d="M366.341 346.002C367.014 346.002 367.559 345.458 367.559 344.786C367.559 344.115 367.014 343.571 366.341 343.571C365.669 343.571 365.123 344.115 365.123 344.786C365.123 345.458 365.669 346.002 366.341 346.002Z" fill="#DB3336"/>
<path d="M385.394 343.575C386.067 343.575 386.613 343.031 386.613 342.36C386.613 341.688 386.067 341.144 385.394 341.144C384.722 341.144 384.176 341.688 384.176 342.36C384.176 343.031 384.722 343.575 385.394 343.575Z" fill="#DB3336"/>
<path d="M403.391 370.534C403.391 370.534 392.096 368.277 389.087 365.273C386.077 362.27 372.531 357.01 371.019 360.751C369.507 364.493 350.691 377.308 363.493 379.55C376.295 381.792 393.608 382.553 397.371 381.054C401.135 379.554 403.391 370.534 403.391 370.534Z" fill="#A8A8A8"/>
<path opacity="0.2" d="M363.493 378.154C376.29 380.411 393.608 381.158 397.371 379.659C400.215 378.514 402.229 373.036 403.016 370.458L403.391 370.538C403.391 370.538 401.13 379.554 397.367 381.059C393.603 382.563 376.285 381.811 363.488 379.554C359.796 378.902 358.749 377.374 359.137 375.444C359.455 376.697 360.744 377.667 363.493 378.154Z" fill="black"/>
<path d="M401.149 141.816C401.149 141.816 395.717 130.354 387.613 126.561C384.371 124.782 380.664 124.196 376.678 126.059C374.759 126.899 373.116 128.264 371.939 129.995C368.683 131.641 364.355 133.245 359.786 133.245C350.445 133.245 332.648 144.498 332.648 144.498C332.648 144.498 322.86 145.397 321.969 148.552C321.647 149.678 320.424 149.886 318.974 149.683C319.358 147.682 319.746 146.301 319.746 146.301L323.306 114.787C323.306 114.787 325.529 107.583 318.855 92.7245C314.917 83.9591 307.419 82.8711 301.935 83.4577V83.2732L301.073 81.7027C301.653 81.4371 302.191 81.088 302.67 80.6668C303.031 80.2692 303.488 79.9697 303.997 79.7964C304.459 79.74 304.927 79.8035 305.357 79.9809L309.376 81.2486C310.052 81.5079 310.771 81.6409 311.495 81.6412C313.201 81.5372 314.452 80.0329 315.49 78.6564C316.272 77.6157 317.097 76.348 316.699 75.1039C316.512 74.6671 316.302 74.2407 316.069 73.8267C315.538 72.6205 315.851 71.1966 316.438 70.0188C317.026 68.8409 317.86 67.8049 318.448 66.6271C319.192 65.0639 319.478 63.3225 319.272 61.604C319.067 59.8856 318.378 58.2602 317.287 56.9157C316.481 55.9696 315.424 55.0803 315.215 53.8362C315.045 52.8192 315.5 51.8116 315.775 50.8182C316.146 49.4315 316.184 47.9768 315.885 46.5727C315.586 45.1687 314.958 43.855 314.054 42.7388C312.921 41.427 311.461 40.4366 309.822 39.8675C310.267 38.823 310.384 37.6685 310.158 36.5562C309.357 32.824 308.187 28.3159 305.329 25.6196C305.056 25.322 304.765 25.0423 304.457 24.7823C303.707 24.1121 302.811 23.6262 301.84 23.3632C299.945 22.9233 297.968 23.77 296.006 23.9687C293.304 24.2431 290.645 23.2781 287.949 22.8476C285.252 22.4172 282.143 22.6915 280.417 24.8107C279.071 26.4664 278.915 28.8552 277.631 30.5628C276.289 32.3509 273.986 33.0605 271.801 33.4389C269.616 33.8173 267.327 33.9782 265.383 35.0567C264.121 35.7873 263.087 36.8525 262.394 38.1341C261.701 39.4158 261.378 40.8638 261.459 42.3178C261.53 43.3443 261.8 44.3566 261.748 45.3831C261.639 47.5401 260.16 49.3376 258.758 50.9649C257.781 52.0954 256.748 53.401 256.862 54.9005C256.971 56.646 258.535 57.8901 259.317 59.4511C260.525 61.8684 259.743 64.8059 258.611 67.261C257.478 69.716 255.99 72.1096 255.767 74.8295C255.724 76.2041 255.853 77.5786 256.151 78.9213C256.369 80.137 256.729 81.523 257.639 82.2325C257.913 82.6037 258.293 82.8838 258.729 83.0367C259.083 83.1189 259.431 83.2232 259.772 83.3489C259.88 83.6518 259.921 83.9748 259.89 84.295C259.89 84.5268 259.89 84.768 259.89 84.9951L259.213 85.0566C251.203 85.9553 241.861 90.4586 242.306 95.8607C242.752 101.263 244.084 114.309 244.084 114.309C244.084 114.309 248.089 138.169 254.317 147.176C258.449 153.153 261.624 159.736 263.729 166.688L267.44 178.931L267.654 179.631C265.758 181.655 264.189 183.94 263.658 186.348C261.881 194.451 244.529 198.505 244.529 198.505C244.529 198.505 226.519 207.228 225.391 219.465L224.571 222.365L220.528 236.816C220.528 236.816 210.295 245.804 213.419 252.573C216.542 259.342 226.32 261.125 225.874 267.88C225.813 268.826 226.211 269.266 226.945 269.299C228.751 272.175 243.183 260.558 247.676 256.835C246.387 261.683 243.16 276.314 250.198 279.148C251.535 279.923 253.091 280.235 254.625 280.037C254.648 281.172 254.7 282.365 254.795 283.628L248.122 313.344C248.122 313.344 244.904 336.854 241.354 344.971H241.155C240.887 345.583 240.536 346.156 240.112 346.674C239.356 347.674 238.773 348.793 238.387 349.985H238.553C238.496 350.127 238.439 350.269 238.387 350.415C235.97 356.872 233.917 369.592 233.026 375.671L232.898 376.541L232.102 376.361C232.102 376.361 231.946 379.242 227.576 380.278V380.387C225.723 380.685 223.869 381.716 224.505 384.772L220.974 384.914V387.166L241.885 386.693L255.231 368.684L254.34 383.542H257.454L259.677 367.785C259.677 367.785 269.464 359.682 260.123 351.579H259.322C259.175 351.263 258.997 350.961 258.791 350.68C258.317 350.004 258.075 348.921 258.051 347.606C258.051 347.256 258.051 346.896 258.094 346.518C258.502 340.695 261.464 332.218 261.464 332.218L272.588 309.257C272.588 309.257 279.261 301.603 277.038 281.348C277.038 281.348 289.048 259.739 298.84 252.535C299.395 252.118 299.924 251.668 300.423 251.187L301.954 266.045L302.76 265.676L302.845 266.494C302.845 266.494 314.324 261.168 324.59 257.279L326.425 269.645C326.425 269.645 330.875 282.7 329.984 291.253C329.093 299.805 329.984 323.67 329.984 323.67C329.984 323.67 332.652 345.278 329.984 350.685L329.956 350.747H329.757C329.357 351.782 329.029 352.845 328.775 353.925H328.889L328.775 354.37C326.984 361.466 325.391 374.711 324.842 379.502L324.789 379.975H323.751C323.751 379.975 321.083 388.079 323.751 390.33C326.42 392.582 340.212 389.857 340.212 389.857C340.212 389.857 345.8 383.325 341.326 380.113V361.967C341.326 361.967 341.117 359.171 341.032 355.501C341.004 354.389 340.989 353.197 340.994 351.976C340.994 347.024 341.364 341.645 342.662 339.455C345.331 334.952 350.672 312.44 350.672 307.942C350.672 303.443 349.307 282.279 349.307 282.279C349.307 282.279 345.302 263.831 350.644 253.017L354.436 235.326C357.488 229.985 359.744 225.553 359.744 225.553C359.744 225.553 382.432 194.938 393.111 193.59C403.789 192.242 401.149 141.816 401.149 141.816ZM243.558 378.954L242.842 378.793C242.951 378.533 243.069 378.258 243.197 377.97C245.093 373.675 249.188 366.366 255.994 362.743L243.558 378.954ZM278.806 171.537C278.806 171.537 278.375 171.755 277.668 172.152L277.085 170.813L276.74 169.924L276.649 169.687L276.403 169.039L276.318 168.812L276.029 168.037L275.934 167.776L275.739 167.247L275.63 166.949L275.427 166.376L275.308 166.04L275.133 165.529L275.033 165.236L274.896 164.81L274.811 164.55L274.626 163.959L274.555 163.722L274.446 163.339L274.379 163.107C274.335 162.95 274.294 162.792 274.256 162.634L274.213 162.469C274.179 162.324 274.145 162.183 274.114 162.048L274.076 161.878C274.051 161.761 274.028 161.647 274.01 161.537V161.414C273.984 161.272 273.965 161.138 273.953 161.012C273.953 160.979 273.953 160.95 273.953 160.922C273.953 160.894 273.953 160.733 273.953 160.643C273.953 160.553 273.953 160.577 273.953 160.548C273.947 160.451 273.947 160.353 273.953 160.255C273.959 160.132 273.959 160.009 273.953 159.886C273.953 159.886 273.953 159.848 273.953 159.829C273.953 159.697 273.953 159.55 273.929 159.394V159.337C273.642 157.379 273.195 155.447 272.592 153.562L273.024 153.968C273.024 153.968 280.583 162.526 278.806 171.537Z" fill="url(#paint0_linear_124_170)"/>
<path d="M296.902 53.3395H270.208V89.7491H296.902V53.3395Z" fill="#FFCD50"/>
<path opacity="0.05" d="M296.902 53.3395H270.208V89.7491H296.902V53.3395Z" fill="black"/>
<path d="M314.14 45.5533C315.042 46.6487 315.67 47.9437 315.969 49.3303C316.268 50.7169 316.231 52.1548 315.86 53.524C315.585 54.5079 315.13 55.4965 315.301 56.4994C315.509 57.7245 316.566 58.5902 317.372 59.5363C318.463 60.8551 319.152 62.4584 319.358 64.1561C319.563 65.8538 319.277 67.5748 318.533 69.1152C317.95 70.2789 317.111 71.3007 316.524 72.4596C315.936 73.6186 315.618 75.0282 316.154 76.2155C316.387 76.6232 316.597 77.0432 316.784 77.4738C317.178 78.699 316.353 79.9525 315.576 80.979C314.542 82.3366 313.291 83.8172 311.58 83.9213C310.856 83.9208 310.139 83.7894 309.462 83.5334L305.442 82.2798C305.012 82.1055 304.544 82.0437 304.082 82.1001C303.574 82.2709 303.118 82.567 302.755 82.961C301.376 84.1578 299.3 84.9478 297.741 83.9922C296.181 83.0367 295.954 80.8371 295.973 78.9781C295.996 76.8588 296.153 74.5694 297.518 72.9421C298.385 71.9062 299.655 71.2723 300.527 70.2364C302.4 68.0131 301.949 64.7444 301.883 61.84C301.845 61.1824 301.92 60.5232 302.106 59.8911C302.33 59.328 302.629 58.7981 302.997 58.3158C304.627 55.9507 306.215 53.5098 307.078 50.7757C307.983 47.9374 307.732 45.331 306.812 42.5448C309.305 41.8211 312.576 43.6896 314.14 45.5533Z" fill="#FFCD50"/>
<path d="M300.684 83.751L295.859 90.9742L295.347 91.7406L295.058 92.8427L290.456 110.388V137.029L279.332 151.22L267.767 131.239C267.767 131.239 257.535 116.575 270.436 94.3848C271.874 91.92 273.181 89.381 274.351 86.7784C274.597 86.2344 274.825 85.6952 275.047 85.1606C277.891 78.3773 278.977 72.7434 279.266 68.4577C279.688 62.2515 278.441 58.8646 278.441 58.8646L302.02 64.6356C301.119 67.0527 300.343 69.5141 299.693 72.0102C296.892 83.1218 300.684 83.751 300.684 83.751Z" fill="#FB5661"/>
<path d="M295.342 87.3035C295.342 87.3035 312.249 80.2079 318.922 94.8721C325.595 109.536 323.372 116.632 323.372 116.632L319.813 147.71C319.813 147.71 317.145 157.034 318.922 162.374C320.699 167.715 323.813 190.345 323.813 190.345L306.907 192.563C306.907 192.563 306.016 171.693 303.348 165.922L304.163 131.731C304.212 129.683 303.829 127.648 303.039 125.757C297.956 113.581 295.338 100.522 295.338 87.3319L295.342 87.3035Z" fill="#FB5661"/>
<path d="M272.436 90.7614C268.667 87.9688 263.966 86.7307 259.307 87.3035C251.297 88.1928 241.956 92.6299 242.401 97.961C242.847 103.292 244.179 116.163 244.179 116.163C244.179 116.163 248.184 139.697 254.411 148.576L260.639 157.455L272.649 196.527L287.342 194.754C287.342 194.754 273.55 165.898 273.995 161.452C274.441 157.005 264.654 132.147 264.654 132.147L272.436 90.7614Z" fill="#FB5661"/>
<path d="M287.337 194.754L272.645 196.527L267.531 179.891L263.819 167.819C261.709 160.953 258.533 154.459 254.407 148.576C248.179 139.697 244.174 116.163 244.174 116.163C244.174 116.163 242.837 103.287 242.397 97.961C241.956 92.6346 251.293 88.1928 259.303 87.3035C261.697 87.0317 264.121 87.2179 266.445 87.8522C268.612 88.4165 270.646 89.4055 272.427 90.7614L264.635 132.147C264.635 132.147 270.716 147.601 273.076 156.319C273.706 158.661 274.071 160.51 273.981 161.452C273.825 163.008 275.403 167.54 277.536 172.805C281.498 182.545 287.337 194.754 287.337 194.754Z" fill="#FB5661"/>
<path d="M226.832 218.732L221.495 237.379C221.495 237.379 211.262 246.277 214.376 252.899C217.49 259.522 227.277 261.333 226.832 267.994C226.386 274.654 249.075 255.562 249.075 255.562C249.075 255.562 241.065 280.87 254.857 279.54C268.649 278.211 280.214 250.685 280.214 250.685L300.679 244.914L302.902 266.225C302.902 266.225 334.932 251.56 339.828 253.348C344.724 255.137 359.848 225.818 359.848 225.818C359.848 225.818 382.537 195.624 393.215 194.295C403.893 192.965 401.225 143.235 401.225 143.235C401.225 143.235 390.992 121.925 377.645 128.141C364.299 134.356 376.323 151.244 376.323 151.244L335.837 184.101L293.575 192.535L226.832 218.732Z" fill="white"/>
<path opacity="0.02" d="M392.324 193.864C381.645 195.198 358.957 225.387 358.957 225.387C358.957 225.387 343.833 254.697 338.942 252.899C334.051 251.102 302.016 265.775 302.016 265.775L299.793 244.465L279.327 250.236C279.327 250.236 267.763 277.767 253.971 279.091C240.178 280.416 248.188 255.113 248.188 255.113C248.188 255.113 225.5 274.233 225.941 267.563C226.381 260.893 216.599 259.134 213.485 252.473C210.371 245.813 220.594 236.934 220.594 236.934L224.661 222.743L225.931 218.301L292.66 192.105L334.923 183.67L375.408 150.813C375.408 150.813 367.076 139.11 372 131.603C373.184 129.892 374.826 128.547 376.74 127.724C390.087 121.509 400.319 142.819 400.319 142.819C400.319 142.819 403.002 192.535 392.324 193.864Z" fill="black"/>
<path d="M331.823 204.522C331.823 204.522 329.354 208.878 325.695 214.995C324.695 216.66 323.605 218.462 322.458 220.335L321.623 221.679C314.159 233.76 304.414 248.467 298.902 252.464C289.115 259.559 277.1 280.879 277.1 280.879C279.323 300.86 272.649 308.41 272.649 308.41L261.525 331.054C261.525 331.054 258.568 339.413 258.156 345.155C258.013 347.133 258.156 348.793 258.852 349.701C259.237 350.22 259.526 350.803 259.705 351.423C260.8 355.056 258.852 359.914 258.852 359.914C250.354 362.752 245.42 371.343 243.259 376.139C242.762 377.218 242.324 378.324 241.946 379.45L232.605 377.232C232.605 377.232 232.775 375.945 233.079 373.883C233.97 367.889 236.022 355.34 238.439 348.973C238.826 347.794 239.409 346.689 240.164 345.704C240.587 345.195 240.938 344.63 241.207 344.025C244.837 336.456 248.174 312.402 248.174 312.402L254.847 283.098C253.511 265.335 259.739 260.898 259.739 260.898L275.138 228.732L278.872 220.936L324.254 206.854L325.448 206.485L331.823 204.522Z" fill="#FB5661"/>
<path d="M230.818 378.575C230.818 378.575 223.234 377.241 224.59 383.017H230.818V378.575Z" fill="#FB5661"/>
<path opacity="0.05" d="M243.269 376.149C242.771 377.228 242.333 378.333 241.956 379.46L232.614 377.241C232.614 377.241 232.785 375.955 233.088 373.892L243.269 376.149Z" fill="black"/>
<path d="M244.183 377.241L232.173 374.578C232.173 374.578 232.017 377.416 227.647 378.443L228.173 383.902L240.629 383.457L244.183 377.241Z" fill="#4F4A55"/>
<path d="M221.049 383.012V385.231L241.96 384.786L255.307 367.024L254.416 381.688H257.53L259.753 366.149C259.753 366.149 269.54 358.154 260.198 350.165H257.084L256.639 360.378L242.847 378.14L232.168 382.582L221.049 383.012Z" fill="#4F4A55"/>
<path opacity="0.05" d="M259.729 350.993L238.463 348.542C238.85 347.364 239.433 346.259 240.188 345.274C240.611 344.764 240.962 344.199 241.231 343.594L258.175 344.72C258.032 346.697 258.175 348.358 258.871 349.266C259.258 349.786 259.549 350.371 259.729 350.993Z" fill="black"/>
<path d="M259.729 351.437L238.463 348.987C238.85 347.808 239.433 346.703 240.188 345.718C240.611 345.209 240.962 344.644 241.231 344.039L258.175 345.165C258.032 347.142 258.175 348.802 258.871 349.711C259.258 350.231 259.549 350.815 259.729 351.437Z" fill="#4F4A55"/>
<path opacity="0.1" d="M331.823 204.522C331.823 204.522 329.354 208.878 325.695 214.995C324.695 216.66 323.604 218.462 322.458 220.335L321.623 221.679L321.566 220.331L321.429 217.123L321.149 210.728C321.149 210.728 322.32 209.228 324.268 206.859L325.462 206.49L331.823 204.522Z" fill="black"/>
<path d="M361.45 190.529C361.45 202.828 358.071 217.842 358.071 217.842L350.487 252.473C345.151 263.131 349.151 281.329 349.151 281.329C349.151 281.329 350.487 302.199 350.487 306.636C350.487 311.073 345.151 333.277 342.478 337.714C341.179 339.871 340.828 345.179 340.809 350.061C340.809 351.262 340.809 352.426 340.847 353.538C340.932 357.156 341.141 359.914 341.141 359.914V380.784L324.68 379.45C324.68 379.45 324.751 378.793 324.879 377.677C325.425 372.946 327.017 359.914 328.813 352.894C329.067 351.827 329.395 350.779 329.794 349.758C329.87 349.578 329.946 349.413 330.022 349.261C332.69 343.935 330.022 322.62 330.022 322.62C330.022 322.62 329.131 299.086 330.022 290.652C330.913 282.218 326.462 269.342 326.462 269.342L323.794 251.579L322.434 220.331L322.296 217.123L322.017 210.728C322.017 210.728 323.311 209.072 325.439 206.471C327.657 203.765 330.785 200.052 334.259 196.173C337.833 192.194 341.767 188.051 345.482 184.668C352.175 178.566 358.128 174.933 359.829 179.186C361.014 182.124 361.445 186.154 361.45 190.529Z" fill="#FB5661"/>
<path opacity="0.1" d="M341.165 377.686V380.794L324.704 379.46C324.704 379.46 324.775 378.802 324.903 377.686H341.165Z" fill="black"/>
<path d="M330.932 378.131H323.823C323.823 378.131 321.154 386.125 323.823 388.343C326.491 390.562 340.283 387.899 340.283 387.899C340.283 387.899 346.065 381.238 341.174 378.131H330.932Z" fill="#4F4A55"/>
<path opacity="0.1" d="M302.016 64.6593C301.115 67.0763 300.338 69.5378 299.689 72.0339C296.301 73.4612 292.574 73.8853 288.951 73.2553C285.329 72.6254 281.965 70.9681 279.261 68.4814C279.683 62.2752 278.436 58.8882 278.436 58.8882L302.016 64.6593Z" fill="black"/>
<path d="M292.229 72.6536C302.793 72.6536 311.358 64.1059 311.358 53.5618C311.358 43.0178 302.793 34.4701 292.229 34.4701C281.664 34.4701 273.1 43.0178 273.1 53.5618C273.1 64.1059 281.664 72.6536 292.229 72.6536Z" fill="#FB5661"/>
<path d="M301.911 85.7235C299.764 85.9584 297.653 86.4557 295.627 87.2041L299.812 81.5277L301.911 85.7235Z" fill="#F0F0F2"/>
<path opacity="0.1" d="M360.071 179.659C359.872 179.033 359.45 178.502 358.885 178.167C358.319 177.832 357.65 177.717 357.004 177.843C357.503 177.905 357.974 178.11 358.36 178.432C358.745 178.754 359.03 179.18 359.18 179.659C360.346 182.568 360.777 186.598 360.782 190.974C360.782 203.273 357.402 218.287 357.402 218.287L349.819 252.918C344.482 263.576 348.483 281.773 348.483 281.773C348.483 281.773 349.819 302.644 349.819 307.081C349.819 311.518 344.482 333.722 341.809 338.159C340.511 340.316 340.16 345.624 340.141 350.505C340.141 351.707 340.141 352.87 340.179 353.982C340.264 357.601 340.473 360.359 340.473 360.359V381.172L341.364 381.243V360.368C341.364 360.368 341.155 357.61 341.07 353.992C341.041 352.894 341.027 351.716 341.032 350.515C341.032 345.633 341.402 340.326 342.7 338.169C345.369 333.727 350.71 311.527 350.71 307.09C350.71 302.653 349.374 281.783 349.374 281.783C349.374 281.783 345.369 263.58 350.71 252.927L358.294 218.297C358.294 218.297 361.687 203.297 361.673 190.983C361.668 186.598 361.237 182.568 360.071 179.659Z" fill="black"/>
<path opacity="0.05" d="M345.17 202.757C339.97 204.712 335.157 207.567 330.951 211.192C329.271 212.552 327.521 213.825 325.709 215.004C324.718 215.662 323.586 216.381 322.334 217.138C313.127 222.686 303.134 226.818 292.693 229.394C285.171 231.239 279.46 230.543 275.156 228.755L278.891 220.96L325.467 206.509C327.685 203.803 330.813 200.089 334.288 196.211C337.861 192.232 341.795 188.088 345.511 184.706L349.625 182.776C349.625 182.776 353.62 199.64 345.17 202.757Z" fill="black"/>
<path opacity="0.05" d="M361.45 190.529C353.075 190.473 341.833 193.675 334.278 196.206C344.288 185.056 357.199 172.606 359.872 179.219C361.014 182.123 361.445 186.154 361.45 190.529Z" fill="black"/>
<path d="M263.312 215.179C263.312 215.179 269.095 234.271 292.674 228.5C316.253 222.729 330.932 210.298 330.932 210.298C335.138 206.673 339.951 203.818 345.151 201.863C353.601 198.755 349.601 181.882 349.601 181.882L326.913 192.54L311.789 181.882L298.888 186.324L263.298 196.537L263.312 215.179Z" fill="white"/>
<path opacity="0.02" d="M263.995 215.179C263.995 215.179 269.777 234.271 293.357 228.5C316.936 222.729 331.614 210.298 331.614 210.298C335.82 206.673 340.633 203.818 345.833 201.863C354.284 198.755 350.284 181.882 350.284 181.882L327.595 192.54L312.471 181.882L299.57 186.324L263.995 196.532V215.179Z" fill="black"/>
<path opacity="0.03" d="M382.091 159.238C382.091 159.238 379.423 194.758 366.967 191.206C354.511 187.653 326.041 199.2 326.041 199.2C326.041 199.2 323.818 195.203 316.699 193.429C309.58 191.655 302.006 199.645 302.006 199.645C302.006 199.645 290.442 197.871 279.318 199.2C268.194 200.529 273.981 213.864 273.981 213.864C273.981 213.864 265.971 223.632 253.961 220.525C241.951 217.417 236.164 223.188 236.164 223.188H225.547L226.818 218.746L293.546 192.549L335.809 184.115L376.323 151.244C376.323 151.244 367.991 139.541 372.915 132.034C374.573 131.165 376.158 130.163 377.655 129.039C377.655 129.039 385.665 139.252 391.001 142.36C396.338 145.468 382.091 159.238 382.091 159.238Z" fill="black"/>
<path opacity="0.1" d="M295.854 90.9742L295.342 91.7405L290.451 110.388V137.029L279.327 151.22L267.763 131.239C267.763 131.239 257.53 116.575 270.431 94.3848C272.169 91.4139 273.709 88.3326 275.043 85.1606L275.322 85.0565C275.322 85.0565 273.1 126.348 273.545 133.008C273.991 139.669 282.441 143.666 282.441 143.666C280.218 134.342 287.778 98.3772 287.778 98.3772L295.788 87.5305C295.788 87.909 295.788 88.2921 295.788 88.6705C295.788 89.049 295.788 89.3091 295.788 89.6166C295.786 89.656 295.786 89.6955 295.788 89.7349C295.826 90.1748 295.84 90.5769 295.854 90.9742Z" fill="black"/>
<path opacity="0.1" d="M295.053 92.8475L290.451 110.392V137.034L279.327 151.225L267.763 131.244C267.763 131.244 257.53 116.58 270.431 94.3896C271.87 91.9247 273.176 89.3857 274.346 86.7831C273.934 94.6545 272.265 127.176 272.654 133.018C273.1 139.678 281.55 143.675 281.55 143.675C279.327 134.352 286.887 98.3867 286.887 98.3867L294.897 87.54C294.897 87.9184 294.897 88.3016 294.897 88.68C294.897 89.0584 294.897 89.3186 294.897 89.6261C294.895 89.6655 294.895 89.705 294.897 89.7443C294.897 90.6904 294.959 91.6365 295.006 92.5826C295.044 92.6866 295.044 92.767 295.053 92.8475Z" fill="black"/>
<path opacity="0.1" d="M260.203 132.592V128.718C260.203 119.794 261.35 110.907 263.616 102.275L265.099 96.627L265.545 88.1928L266.459 87.8569C268.627 88.4213 270.66 89.4102 272.441 90.7661L264.649 132.152C264.649 132.152 270.73 147.606 273.09 156.324C272.559 155.629 272.213 155.241 272.213 155.241C255.748 140.142 260.203 132.592 260.203 132.592Z" fill="black"/>
<path d="M287.337 194.754L272.645 196.527L267.531 179.891C271.275 176.244 276.062 173.566 277.536 172.795C281.498 182.544 287.337 194.754 287.337 194.754Z" fill="#F0F0F2"/>
<path d="M382.091 158.344C382.091 158.344 379.423 193.864 366.967 190.312C354.511 186.759 326.041 198.306 326.041 198.306C326.041 198.306 323.818 194.309 316.699 192.535C309.58 190.761 302.006 198.751 302.006 198.751C302.006 198.751 290.442 196.977 279.318 198.306C268.194 199.635 273.981 212.97 273.981 212.97C273.981 212.97 265.971 222.738 253.961 219.63C241.951 216.523 236.164 222.294 236.164 222.294H225.5C224.163 208.973 244.629 199.205 244.629 199.205C244.629 199.205 261.98 195.208 263.758 187.218C265.535 179.229 278.882 172.554 278.882 172.554C280.659 163.675 273.1 155.236 273.1 155.236C256.639 140.142 261.089 132.592 261.089 132.592V128.718C261.09 119.794 262.237 110.907 264.502 102.275L265.985 96.627L266.431 88.1928L274.896 85.0849C274.896 85.0849 272.673 126.376 273.119 133.037C273.564 139.697 282.005 143.694 282.005 143.694C279.782 134.371 287.342 98.4056 287.342 98.4056L295.352 87.5589C295.352 87.9373 295.352 88.3205 295.352 88.6989C295.352 89.0774 295.352 89.3375 295.352 89.645C295.35 89.6844 295.35 89.7239 295.352 89.7633C295.352 90.7093 295.414 91.6554 295.461 92.6015C295.461 92.7103 295.461 92.8144 295.461 92.9279C295.461 93.3016 295.504 93.6753 295.532 94.049C295.532 94.2713 295.56 94.4889 295.575 94.7065C295.575 94.7349 295.575 94.7585 295.575 94.7869C295.609 95.2631 295.649 95.7361 295.693 96.206C295.691 96.2201 295.691 96.2345 295.693 96.2486C295.731 96.7216 295.778 97.1947 295.826 97.6298L295.878 98.136C295.93 98.6469 295.987 99.153 296.058 99.6592C296.129 100.165 296.181 100.653 296.252 101.149C296.252 101.225 296.252 101.296 296.286 101.372C296.357 102.024 296.456 102.653 296.575 103.264V103.33C297.137 106.147 298.205 108.839 299.727 111.277L313.073 149.016C313.073 149.016 316.391 150.662 318.974 151.017C320.424 151.215 321.647 151.017 321.969 149.9C322.86 146.792 332.648 145.903 332.648 145.903C332.648 145.903 350.445 134.801 359.787 134.801C369.128 134.801 377.584 128.141 377.584 128.141C377.584 128.141 385.594 138.354 390.93 141.461C396.267 144.569 382.091 158.344 382.091 158.344Z" fill="white"/>
<path opacity="0.02" d="M279.55 168.335C279.55 168.335 289.337 167.445 296.456 166.116C303.575 164.787 319.145 151.452 319.145 151.452" fill="black"/>
<path d="M338.942 384.791H323.813C324.018 384.556 324.237 384.334 324.467 384.124C326.273 382.445 331.638 378.571 338.212 384.124C338.444 384.327 338.691 384.554 338.942 384.791Z" fill="#FB5661"/>
<path opacity="0.1" d="M340.871 353.107L328.837 352.459C329.091 351.392 329.418 350.344 329.818 349.323L340.833 349.63C340.828 350.818 340.842 352.01 340.871 353.107Z" fill="black"/>
<path d="M340.871 353.547L328.837 352.899C329.091 351.832 329.418 350.784 329.818 349.763L340.833 350.07C340.828 351.291 340.842 352.454 340.871 353.547Z" fill="#4F4A55"/>
<path opacity="0.1" d="M304.983 28.2923C304.235 27.6375 303.346 27.1633 302.385 26.9063C300.49 26.4711 298.513 27.3036 296.551 27.5023C293.849 27.7719 291.191 26.8211 288.494 26.3954C285.797 25.9697 282.688 26.2393 280.963 28.3348C279.616 29.9668 279.46 32.3225 278.176 34.0113C276.834 35.771 274.531 36.4758 272.346 36.8495C270.161 37.2232 267.872 37.3793 265.929 38.4436C264.672 39.155 263.639 40.2021 262.946 41.4673C262.252 42.7324 261.926 44.1655 262.004 45.6054C262.075 46.6177 262.345 47.6158 262.293 48.6281C262.184 50.752 260.706 52.5259 259.303 54.1295C258.326 55.2458 257.293 56.5325 257.407 58.0131C257.516 59.735 259.08 60.9648 259.862 62.5022C261.07 64.8674 260.288 67.786 259.156 70.208C258.023 72.6299 256.535 74.9904 256.312 77.6583C256.269 79.014 256.398 80.3698 256.696 81.6933C256.957 83.1408 257.43 84.8437 258.829 85.312C259.303 85.4728 259.9 85.4823 260.217 85.8796C260.42 86.2197 260.497 86.6195 260.435 87.0102C260.345 89.8484 261.037 93.0272 263.36 94.697C264.033 95.1621 264.78 95.5121 265.568 95.733C266.745 96.1106 267.987 96.2433 269.217 96.1229C270.447 96.0024 271.64 95.6315 272.72 95.0329C274.839 93.7746 276.28 91.3243 276.038 88.8834C275.934 87.8144 275.531 86.7926 275.365 85.7283C275.199 84.6639 275.332 83.4577 276.114 82.7198C276.581 82.3606 277.079 82.044 277.602 81.7737C279.46 80.558 279.972 77.9894 279.593 75.8134C279.214 73.6375 278.124 71.6365 277.417 69.5363C276.503 66.821 276.228 63.9402 275.995 61.0878C275.806 58.7794 275.64 56.4379 276.062 54.1626C276.122 53.7097 276.284 53.2763 276.536 52.8949C276.918 52.4538 277.423 52.1361 277.986 51.9819C280.517 51.0973 283.285 51.1967 285.911 50.6432C288.536 50.0897 291.285 48.5571 291.916 45.9554C292.39 43.9072 291.584 41.3622 293.101 39.8911C294.418 38.6139 296.608 39.1153 298.271 39.8911C300.015 40.7022 301.656 41.7185 303.158 42.9185C304.717 44.1626 306.817 45.8466 308.746 44.3045C310.125 43.2024 310.599 41.1163 310.244 39.4796C309.4 35.5959 308.153 30.8845 304.983 28.2923Z" fill="black"/>
<path d="M304.537 27.8476C303.781 27.1891 302.882 26.7146 301.911 26.4616C300.016 26.0264 298.039 26.859 296.077 27.0576C293.375 27.3273 290.717 26.3765 288.02 25.9507C285.323 25.525 282.214 25.7946 280.489 27.8902C279.142 29.5222 278.986 31.8779 277.702 33.5666C276.36 35.3263 274.057 36.0311 271.872 36.4048C269.687 36.7785 267.398 36.9346 265.455 37.999C264.198 38.7104 263.165 39.7575 262.472 41.0227C261.778 42.2878 261.452 43.7208 261.53 45.1607C261.601 46.173 261.871 47.1711 261.819 48.1834C261.71 50.3074 260.232 52.0812 258.829 53.6848C257.852 54.8012 256.819 56.0879 256.933 57.5685C257.042 59.2903 258.606 60.5202 259.388 62.0576C260.597 64.4227 259.814 67.3414 258.682 69.7633C257.549 72.1853 256.061 74.5457 255.838 77.2136C255.795 78.5694 255.924 79.9251 256.222 81.2486C256.483 82.6961 256.956 84.399 258.355 84.8674C258.829 85.0282 259.426 85.0376 259.743 85.435C259.946 85.775 260.023 86.1749 259.961 86.5655C259.871 89.4038 260.563 92.5826 262.886 94.2524C263.559 94.7174 264.306 95.0675 265.094 95.2883C266.271 95.6659 267.513 95.7986 268.743 95.6782C269.973 95.5578 271.166 95.1868 272.246 94.5882C274.365 93.33 275.806 90.8796 275.564 88.4388C275.46 87.3697 275.057 86.348 274.891 85.2836C274.725 84.2193 274.858 83.0131 275.64 82.2751C276.107 81.916 276.605 81.5994 277.128 81.329C278.986 80.1133 279.498 77.5448 279.119 75.3688C278.74 73.1928 277.65 71.1919 276.943 69.0916C276.029 66.3764 275.754 63.4956 275.521 60.6432C275.332 58.3348 275.166 55.9932 275.588 53.7179C275.648 53.265 275.81 52.8316 276.062 52.4502C276.444 52.0092 276.949 51.6914 277.512 51.5373C280.043 50.6527 282.811 50.752 285.437 50.1986C288.062 49.6451 290.83 48.0746 291.484 45.4824C291.958 43.4341 291.153 40.8892 292.669 39.4181C293.987 38.1409 296.177 38.6423 297.84 39.4181C299.584 40.2291 301.225 41.2455 302.727 42.4455C304.286 43.6896 306.386 45.3736 308.315 43.8315C309.694 42.7293 310.168 40.6432 309.812 39.0065C308.954 35.1513 307.708 30.4399 304.537 27.8476Z" fill="#FFCD50"/>
<path d="M295.376 89.7775C295.376 90.7235 295.437 91.6696 295.485 92.6157C295.432 91.6649 295.395 90.7188 295.376 89.7775Z" fill="#FB5661"/>
<path d="M323.813 190.317L306.907 192.535C306.907 192.535 306.016 171.665 303.348 165.894L304.163 131.707C304.211 129.659 303.828 127.624 303.039 125.733C300.499 119.645 299.788 111.286 299.788 111.286L313.135 149.025C313.135 149.025 316.452 150.671 319.036 151.026C318.419 154.229 317.822 159.068 318.922 162.346C320.699 167.672 323.813 190.317 323.813 190.317Z" fill="#FB5661"/>
<path d="M299.793 81.5324L287.337 98.4056L299.793 110.837L302.016 85.5296L299.793 81.5324Z" fill="white"/>
<path opacity="0.05" d="M297.347 190.534C297.347 190.534 308.912 181.655 317.59 185.43C326.268 189.205 335.164 186.097 335.164 186.097L331.6 191.878L307.599 192.757L297.347 190.534Z" fill="black"/>
<path d="M297.347 190.979C297.347 190.979 308.912 182.1 317.59 185.875C326.268 189.65 335.164 186.542 335.164 186.542L331.605 192.313L307.599 193.202L297.347 190.979Z" fill="white"/>
<path d="M266.763 177.369L272.877 196.75L286.285 192.535L277.161 171.835L266.763 177.369Z" fill="#FB5661"/>
<path opacity="0.05" d="M267.54 196.31C267.54 196.31 273.768 186.986 277.773 188.316C281.778 189.645 290.859 188.183 290.859 188.183L288.892 194.976L278.659 196.31L269.317 199.418L267.54 196.31Z" fill="black"/>
<path d="M267.54 196.755C267.54 196.755 273.768 187.431 277.773 188.76C281.778 190.089 290.859 188.628 290.859 188.628L288.892 195.421L278.659 196.755L269.317 199.862L267.54 196.755Z" fill="white"/>
<path opacity="0.05" d="M350.397 182.478C350.397 182.478 363.194 185.208 371.195 176.773C379.195 168.339 376.532 160.79 380.982 156.348C385.432 151.906 389.878 147.914 388.992 144.361" stroke="black" stroke-width="2" stroke-miterlimit="10"/>
<path opacity="0.1" d="M338.942 384.791H323.813C324.018 384.556 324.237 384.334 324.467 384.124H338.212C338.444 384.327 338.691 384.554 338.942 384.791Z" fill="black"/>
<path opacity="0.5" d="M137.728 116.93C131.666 120.094 129.078 127.105 129.078 127.105C129.078 127.105 136.32 128.997 142.382 125.813C148.444 122.63 151.032 115.638 151.032 115.638C151.032 115.638 143.789 113.765 137.728 116.93Z" fill="#DB3336"/>
<path opacity="0.5" d="M182.095 203.467C177.294 208.33 176.976 215.794 176.976 215.794C176.976 215.794 184.446 215.368 189.247 210.506C194.048 205.643 194.366 198.178 194.366 198.178C194.366 198.178 186.896 198.599 182.095 203.467Z" fill="#DB3336"/>
<path opacity="0.5" d="M144.922 234.451C138.149 235.397 133.367 241.163 133.367 241.163C133.367 241.163 139.566 245.345 146.339 244.375C153.112 243.405 157.894 237.663 157.894 237.663C157.894 237.663 151.695 233.467 144.922 234.451Z" fill="#DB3336"/>
<path opacity="0.5" d="M201.224 31.6319C196.423 36.4947 196.105 43.9592 196.105 43.9592C196.105 43.9592 203.575 43.5335 208.376 38.6707C213.177 33.8079 213.495 26.3434 213.495 26.3434C213.495 26.3434 206.025 26.788 201.224 31.6319Z" fill="#DB3336"/>
<path opacity="0.5" d="M344.473 68.0415C339.672 72.9043 339.354 80.3688 339.354 80.3688C339.354 80.3688 346.824 79.943 351.625 75.0802C356.426 70.2174 356.744 62.7387 356.744 62.7387C356.744 62.7387 349.274 63.1787 344.473 68.0415Z" fill="#DB3336"/>
<path opacity="0.5" d="M95.787 202.133C90.9858 206.996 90.6682 214.46 90.6682 214.46C90.6682 214.46 98.1378 214.034 102.939 209.172C107.74 204.309 108.062 196.844 108.062 196.844C108.062 196.844 100.593 197.27 95.787 202.133Z" fill="#DB3336"/>
<path opacity="0.5" d="M64.3541 135.861C58.2922 139.025 55.7043 146.036 55.7043 146.036C55.7043 146.036 62.9464 147.928 69.0084 144.744C75.0703 141.561 77.6581 134.569 77.6581 134.569C77.6581 134.569 70.4208 132.691 64.3541 135.861Z" fill="#DB3336"/>
<path opacity="0.5" d="M211.608 139.844C205.546 143.008 202.958 150.019 202.958 150.019C202.958 150.019 210.201 151.911 216.262 148.727C222.324 145.544 224.912 138.552 224.912 138.552C224.912 138.552 217.67 136.688 211.608 139.844Z" fill="#DB3336"/>
<path d="M80.663 311.314C80.663 311.314 84.393 316.182 78.9425 323.528C73.492 330.874 68.9894 337.076 70.8189 341.655C70.8189 341.655 79.042 328.012 85.7296 327.819C92.4171 327.625 88.0235 319.521 80.663 311.314Z" fill="#DB3336"/>
<path opacity="0.1" d="M80.663 311.314C80.9887 311.785 81.2456 312.299 81.4261 312.842C87.9572 320.496 91.4313 327.643 85.1561 327.823C79.3122 327.989 72.2976 338.424 70.6198 341.068C70.6749 341.272 70.7414 341.473 70.8189 341.669C70.8189 341.669 79.0421 328.027 85.7296 327.833C92.4172 327.639 88.0236 319.521 80.663 311.314Z" fill="black"/>
<path d="M87.5922 317.516C87.5922 319.228 87.3979 320.614 87.1609 320.614C86.9239 320.614 86.7296 319.228 86.7296 317.516C86.7296 315.803 86.9713 316.608 87.2036 316.608C87.4358 316.608 87.5922 315.813 87.5922 317.516Z" fill="#FFD037"/>
<path d="M89.9715 319.559C88.4643 320.378 87.1278 320.874 87.0377 320.666C86.9477 320.458 88.052 319.626 89.5592 318.807C91.0664 317.989 90.4739 318.585 90.5877 318.807C90.7014 319.03 91.474 318.741 89.9715 319.559Z" fill="#FFD037"/>
<path d="M60.97 311.314C60.97 311.314 57.2399 316.182 62.6904 323.528C68.141 330.874 72.6436 337.076 70.8141 341.655C70.8141 341.655 62.5909 328.012 55.9034 327.819C49.2158 327.625 53.6094 319.521 60.97 311.314Z" fill="#DB3336"/>
<path opacity="0.1" d="M60.97 311.314C60.6443 311.785 60.3873 312.299 60.2069 312.842C53.6758 320.496 50.2016 327.643 56.4769 327.823C62.3208 327.989 69.3353 338.424 71.0131 341.068C70.958 341.272 70.8916 341.473 70.8141 341.669C70.8141 341.669 62.5909 328.027 55.9034 327.833C49.2158 327.639 53.6094 319.521 60.97 311.314Z" fill="black"/>
<path d="M54.0312 317.516C54.0312 319.228 54.2256 320.614 54.4626 320.614C54.6995 320.614 54.8939 319.228 54.8939 317.516C54.8939 315.803 54.6521 316.608 54.4199 316.608C54.1877 316.608 54.0312 315.813 54.0312 317.516Z" fill="#FFD037"/>
<path d="M51.6615 319.559C53.1687 320.378 54.5052 320.874 54.5953 320.666C54.6853 320.458 53.581 319.626 52.0738 318.807C50.5666 317.989 51.1591 318.585 51.0453 318.807C50.9316 319.03 50.1543 318.741 51.6615 319.559Z" fill="#FFD037"/>
<path d="M55.2256 341.016C55.2256 341.016 65.6527 340.695 68.7903 338.462C71.9279 336.229 84.8243 333.561 85.6016 337.142C86.3789 340.723 101.266 354.952 89.4976 355.046C77.7292 355.141 62.1549 353.216 59.0173 351.309C55.8797 349.403 55.2256 341.016 55.2256 341.016Z" fill="#A8A8A8"/>
<path opacity="0.2" d="M89.7109 353.802C77.9425 353.897 62.3682 351.972 59.2306 350.065C56.8608 348.613 55.9129 343.405 55.5716 341.002H55.2256C55.2256 341.002 55.8844 349.394 59.0173 351.3C62.1502 353.206 77.7292 355.132 89.4976 355.037C92.8959 355.009 94.0665 353.802 94.0049 352.019C93.5357 353.107 92.2371 353.783 89.7109 353.802Z" fill="black"/>
</g>
<defs>
<linearGradient id="paint0_linear_124_170" x1="307.134" y1="391.229" x2="307.134" y2="22.701" gradientUnits="userSpaceOnUse">
<stop stop-color="#808080" stop-opacity="0.25"/>
<stop offset="0.54" stop-color="#808080" stop-opacity="0.12"/>
<stop offset="1" stop-color="#808080" stop-opacity="0.1"/>
</linearGradient>
<clipPath id="clip0_124_170">
<rect width="455" height="397" fill="white"/>
</clipPath>
</defs>
</svg>
